<?xml version="1.0" encoding="utf-8"?>
<!-- Generator: Adobe Illustrator 19.2.1, SVG Export Plug-In . SVG Version: 6.00 Build 0)  -->
<svg version="1.1" id="Layer_1" xmlns="http://www.w3.org/2000/svg" xmlns:xlink="http://www.w3.org/1999/xlink" x="0px" y="0px"
	 viewBox="0 0 200 200" style="enable-background:new 0 0 200 200;" xml:space="preserve">
<style type="text/css">
	.st0{fill:#711A12;}
	.st1{fill:#FFFFFF;}
	.st2{fill:#0F385C;}
	.st3{fill:#D4C928;}
</style>
<rect class="st2" width="200" height="200"/>
<g>
	<path class="st1" d="M184,16v168H16V16H184 M188,12h-4H16h-4v4v168v4h4h168h4v-4V16V12L188,12z"/>
</g>
<g>
	<path class="st1" d="M25.3,167.7v-32.5h6.6v32.5H25.3z"/>
	<path class="st1" d="M35.7,167.7v-32.5h7.9l3.5,21.7l3.7-21.7h7.6v32.5h-4.8l-0.1-22.9c-0.4,2.3-1,6.2-1.9,11.4s-1.5,9.1-1.9,11.4
		h-4.9l-4-23l-0.1,23H35.7z"/>
	<path class="st1" d="M60.5,167.7l7-32.5h5.8l7,32.5h-6.5l-1.3-7h-4.2l-1.3,7H60.5z M68.7,156.7h3.4l-1.6-12.1L68.7,156.7z"/>
	<path class="st1" d="M81.8,157.5v-11.5c0-7.7,3.2-11.5,9.6-11.5c1.3,0,2.6,0.2,3.6,0.5c1.1,0.4,1.9,0.8,2.6,1.5
		c0.7,0.6,1.3,1.4,1.8,2.3c0.5,0.9,0.8,1.9,1,3c0.2,1.1,0.3,2.3,0.3,3.5v1.9h-6.3V145c0-0.6,0-1.1,0-1.5c0-0.4-0.1-0.9-0.2-1.4
		c-0.1-0.5-0.3-1-0.5-1.3c-0.2-0.3-0.5-0.6-0.9-0.8c-0.4-0.2-0.8-0.3-1.4-0.3c-2,0-3,1.6-3,4.8v14c0,3.2,1,4.8,3,4.8c2,0,3-1.7,3-5
		v-2.6h-3.7V151H101v16.7h-4.5l-0.8-2.3c-0.6,0.9-1.3,1.6-2.4,2.1c-1,0.5-2.1,0.8-3.2,0.8c-1.2,0-2.2-0.2-3.2-0.6
		c-1-0.4-1.7-1-2.4-1.7c-0.6-0.7-1.1-1.5-1.6-2.5c-0.4-1-0.7-1.9-0.9-2.9S81.8,158.6,81.8,157.5z"/>
	<path class="st1" d="M104.6,167.7v-32.5h13.6v4.5h-7v8.9h5v4.6h-5v10h7v4.5H104.6z"/>
</g>
</svg>
